<svg xmlns="http://www.w3.org/2000/svg" viewBox="0 0 374 376">
  <defs>
    <style>
      .cls-1 {
        fill: #4d4d4d;
      }

      .cls-2 {
        fill: #b3b3b3;
      }

      .cls-3 {
        fill: #e67e22;
      }

      .cls-4, .cls-5 {
        fill: #fff;
      }

      .cls-5 {
        font-size: 118.97px;
        font-family: Ubuntu-Bold, Ubuntu;
        font-weight: 700;
      }
    </style>
  </defs>
  <title>PL</title>
  <g id="Layer_4" data-name="Layer 4">
    <g id="Layer_2" data-name="Layer 2">
      <polygon class="cls-1" points="333 345 28 335 35 17 356 36 333 345"/>
      <rect class="cls-2" x="27.88" y="29.1" width="315.92" height="323.9"/>
      <g>
        <path class="cls-3" d="M370.5,198.5l-174,174a12,12,0,0,1-17,0l-174-174a12,12,0,0,1,0-17l174-174a12,12,0,0,1,17,0L370.6,181.6A12,12,0,0,1,370.5,198.5Z"/>
        <path class="cls-4" d="M113.5,224.9c.3,0,.6-.1.9-.1h1.8c.3,0,.6.1.9.1v21a6.27,6.27,0,0,0,.2,1.6,1.93,1.93,0,0,0,.5.9,1.61,1.61,0,0,0,.7.4,2.77,2.77,0,0,0,.9.1h.7c.3,0,.5-.1.7-.1a12,12,0,0,1,.3,2.8,3.73,3.73,0,0,1-1.2.2c-.5,0-.9.1-1.3.1a6.45,6.45,0,0,1-2-.3,4.81,4.81,0,0,1-1.6-.8,3.81,3.81,0,0,1-1.1-1.6,6.05,6.05,0,0,1-.4-2.4V224.9Zm17.1,10.8h-2.4c0-.2-.1-.4-.1-.7v-1.4c0-.3.1-.5.1-.7h4.4a1.5,1.5,0,0,1,1.5,1.5v17.1c-.3,0-.6.1-.9.1h-1.8c-.3,0-.6-.1-.9-.1V235.7Zm-.8-7c0-.3-.1-.6-.1-.9V226a2.77,2.77,0,0,1,.1-.9c.3,0,.7-.1,1-.1h1.8c.4,0,.7.1,1,.1,0,.3.1.6.1.9v1.8a2.48,2.48,0,0,1-.1.9c-.3,0-.6.1-1,.1h-1.9a2.77,2.77,0,0,1-.9-.1Zm15.2,4.1c.3,0,.5-.1.8-.1h1.5c.2,0,.5.1.7.1.1.4.1.9.2,1.5a8.64,8.64,0,0,1,.1,1.5,4.7,4.7,0,0,1,.9-1.2,6.89,6.89,0,0,1,1.3-1.1,6.74,6.74,0,0,1,3.8-1.1,5.82,5.82,0,0,1,4.7,1.8,8.28,8.28,0,0,1,1.5,5.4v11.8c-.3,0-.6.1-.9.1h-1.8c-.3,0-.6-.1-.9-.1V240.6a7.41,7.41,0,0,0-.8-3.8,2.79,2.79,0,0,0-2.5-1.2,4.06,4.06,0,0,0-1.9.4,4.19,4.19,0,0,0-1.6,1.1,5.47,5.47,0,0,0-1.1,2,8.47,8.47,0,0,0-.4,2.9v9.4c-.3,0-.6.1-.9.1h-1.8c-.3,0-.6-.1-.9-.1V232.8Zm25.9-7.9c.3,0,.6-.1.9-.1h1.8c.3,0,.6.1.9.1v26.6c-.3,0-.6.1-.9.1h-1.8c-.3,0-.6-.1-.9-.1Zm4.5,16.9,5.9-9c.3,0,.6-.1.9-.1h2c.3,0,.7.1,1,.1l-5.32,7.85a1.49,1.49,0,0,0,0,1.7l6.31,9.05c-.3,0-.7.1-1,.1h-2c-.3,0-.7-.1-1-.1l-6.8-9.6Zm29-2.6a3.78,3.78,0,0,0-1.1-3,4.9,4.9,0,0,0-3.2-.8,19.42,19.42,0,0,0-2.4.2c-.31,0-.64.11-1,.18a1.5,1.5,0,0,1-1.79-1.19v0a1.48,1.48,0,0,1,1.11-1.72,10.74,10.74,0,0,1,1.47-.24,28.25,28.25,0,0,1,2.9-.2c2.4,0,4.3.5,5.5,1.6s1.9,2.9,1.9,5.3v10.49a1.49,1.49,0,0,1-1.22,1.47c-.57.12-1.21.23-1.88.34a22.18,22.18,0,0,1-3.7.3,15.14,15.14,0,0,1-3.2-.3,5.35,5.35,0,0,1-2.4-1.1,4.28,4.28,0,0,1-1.5-1.8,6.91,6.91,0,0,1,.1-5.4,6.32,6.32,0,0,1,1.61-1.93l.18-.13a10.1,10.1,0,0,1,2.41-1.14,9.48,9.48,0,0,1,3-.4,10.32,10.32,0,0,1,1.9.1c.5,0,.9.1,1.3.1v-.7Zm0,3.5c-.4,0-.8-.1-1.4-.1s-1-.1-1.4-.1a6.32,6.32,0,0,0-3.4.8,2.91,2.91,0,0,0-1.2,2.5,2.87,2.87,0,0,0,2.7,3c.5,0,.9.1,1.4.1a9.7,9.7,0,0,0,1.7-.1l.37-.06a1.5,1.5,0,0,0,1.23-1.48V242.7Zm13.9-9.9c.2,0,.5-.1.7-.1h1.6c.3,0,.5.1.8.1a1.21,1.21,0,0,1,.1.5c0,.3.1.5.1.8s.1.6.1.8a2,2,0,0,0,.1.5,3.13,3.13,0,0,1,.9-1.1,4,4,0,0,1,1.2-1,7.74,7.74,0,0,1,1.6-.7,6.45,6.45,0,0,1,2-.3,9.36,9.36,0,0,1,2.89.46l.22.09a6.5,6.5,0,0,1,2.29,1.65,8.09,8.09,0,0,1,1.6,2.9,13.3,13.3,0,0,1,.6,4.2,10.51,10.51,0,0,1-2.6,7.5c-1.7,1.8-4.2,2.7-7.3,2.7a8.6,8.6,0,0,1-1.6-.1c-.6-.1-1-.2-1.4-.3v8.5c-.3,0-.6.1-.9.1h-1.8c-.3,0-.6-.1-.9-.1V232.8Zm3.6,15.6a7.37,7.37,0,0,0,1.4.4,10.32,10.32,0,0,0,1.9.1,6.05,6.05,0,0,0,2.4-.4,5.86,5.86,0,0,0,1.9-1.3,6.6,6.6,0,0,0,1.2-2.2,9.59,9.59,0,0,0,.5-3.1,8.69,8.69,0,0,0-1.1-4.6,3.9,3.9,0,0,0-3.5-1.7,4.67,4.67,0,0,0-1.7.3,3.07,3.07,0,0,0-1.5,1,6.45,6.45,0,0,0-1.1,1.6,6.05,6.05,0,0,0-.4,2.4v7.5Zm22.9-15.6c.2,0,.5-.1.7-.1h1.6c.3,0,.5.1.8.1a1.21,1.21,0,0,1,.1.5c0,.3.1.5.1.8s.1.6.1.8a2,2,0,0,0,.1.5,3.13,3.13,0,0,1,.9-1.1,4,4,0,0,1,1.2-1,7.74,7.74,0,0,1,1.6-.7,6.45,6.45,0,0,1,2-.3,9.36,9.36,0,0,1,2.89.46l.22.09a6.5,6.5,0,0,1,2.29,1.65,8.09,8.09,0,0,1,1.6,2.9,13.3,13.3,0,0,1,.6,4.2,10.51,10.51,0,0,1-2.6,7.5c-1.7,1.8-4.2,2.7-7.3,2.7a8.6,8.6,0,0,1-1.6-.1c-.6-.1-1-.2-1.4-.3v8.5c-.3,0-.6.1-.9.1H246c-.3,0-.6-.1-.9-.1V232.8Zm3.6,15.6a7.37,7.37,0,0,0,1.4.4,10.32,10.32,0,0,0,1.9.1,6.05,6.05,0,0,0,2.4-.4,5.86,5.86,0,0,0,1.9-1.3,6.6,6.6,0,0,0,1.2-2.2,9.59,9.59,0,0,0,.5-3.1,8.69,8.69,0,0,0-1.1-4.6,3.9,3.9,0,0,0-3.5-1.7,4.67,4.67,0,0,0-1.7.3,3.07,3.07,0,0,0-1.5,1,6.45,6.45,0,0,0-1.1,1.6,6.05,6.05,0,0,0-.4,2.4v7.5Z"/>
        <text class="cls-5" transform="translate(115.85 211.71)">PL</text>
      </g>
    </g>
  </g>
</svg>
